<svg width="245" height="245" viewBox="0 0 245 245" fill="none" xmlns="http://www.w3.org/2000/svg">
<rect width="245" height="245" fill="#F1F1F1"/>
<path d="M122.5 52.5C146.504 52.5 166 72.1409 166 96.375C166 108.08 161.467 118.705 154.057 126.565L154.056 126.566C148.434 132.547 143.5 140.089 143.5 148.769V153.094C143.5 162.723 135.769 170.5 126.25 170.5H118.75C109.231 170.5 101.5 162.723 101.5 153.094V148.769C101.5 140.089 96.5661 132.547 90.9443 126.566L90.9434 126.565L90.2568 125.82C83.2539 118.04 79 107.715 79 96.375C79 72.1409 98.4964 52.5 122.5 52.5ZM122.5 60.8438C103.027 60.8438 87.25 76.7702 87.25 96.375C87.25 105.846 90.9213 114.433 96.9141 120.821L96.917 120.824C101.826 126.03 107.147 133.258 109.033 142.064L109.287 143.25H135.714L135.967 142.063C137.853 133.235 143.173 126.031 148.083 120.824L148.086 120.821C154.079 114.433 157.75 105.846 157.75 96.375C157.75 76.7702 141.973 60.8438 122.5 60.8438ZM120.625 75.1875C122.902 75.1875 124.75 77.0329 124.75 79.3594C124.75 81.6859 122.902 83.5312 120.625 83.5312C114.605 83.5312 109.75 88.4449 109.75 94.4844C109.75 96.8109 107.902 98.6562 105.625 98.6562C103.348 98.6562 101.5 96.8109 101.5 94.4844C101.5 83.8155 110.075 75.1875 120.625 75.1875Z" stroke="#2C3E50" stroke-width="3"/>
</svg>
