<svg width="245" height="245" viewBox="0 0 245 245" fill="none" xmlns="http://www.w3.org/2000/svg">
<rect width="245" height="245" fill="#F1F1F1"/>
<path d="M85.9162 78.2859C86.8237 77.3784 88.2355 77.2439 89.3111 77.9498L109.294 91.2607C110.79 92.2523 111.681 93.933 111.681 95.7313V104.067L126.941 119.328C132.538 116.807 139.361 117.832 143.95 122.437L165.143 143.63C168.286 146.773 168.286 151.882 165.143 155.042L155.042 165.143C151.899 168.286 146.79 168.286 143.63 165.143L122.437 143.95C117.832 139.345 116.807 132.538 119.328 126.941L104.067 111.681H95.7313C93.933 111.681 92.2523 110.79 91.2607 109.294L77.9498 89.3111C77.2439 88.2523 77.3784 86.8237 78.2859 85.9162L85.9162 78.2859ZM110.286 129.294C109.227 135.496 110.672 142.05 114.689 147.311L98.7397 163.277C94.017 168 86.3532 168 81.6305 163.277C76.9078 158.555 76.9078 150.891 81.6305 146.168L104.387 123.395L110.303 129.294H110.286ZM138.571 79.412C141.95 79.412 145.193 80.0338 148.168 81.1767C149.849 81.8154 150.151 83.9498 148.891 85.2271L139.361 94.7565C138.857 95.2607 138.571 95.9498 138.571 96.6557V103.614C138.571 105.093 139.782 106.303 141.261 106.303H148.219C148.924 106.303 149.613 106.017 150.118 105.513L159.647 95.9834C160.924 94.7229 163.059 95.0254 163.697 96.7061C164.84 99.6809 165.462 102.925 165.462 106.303C165.462 113.563 162.571 120.135 157.899 124.975L149.647 116.723C144.084 111.177 136.454 109.042 129.294 110.269L119.748 100.723V95.7313L119.714 94.891C119.58 92.8069 118.975 90.8069 117.95 89.0254C122.891 83.1431 130.286 79.412 138.571 79.3952V79.412Z" stroke="#2C3E50" stroke-width="3"/>
</svg>
