<svg width="245" height="245" viewBox="0 0 245 245" fill="none" xmlns="http://www.w3.org/2000/svg">
<rect width="245" height="245" fill="#F1F1F1"/>
<path d="M86.5557 127.155H114.686C116.442 127.155 117.874 128.581 117.874 130.389V158.79C117.874 160.113 117.092 161.292 115.908 161.783C114.709 162.281 113.346 162.012 112.431 161.087L104.812 153.396L103.746 152.319L102.681 153.396L85.6855 170.554C84.4331 171.818 82.4257 171.81 81.2002 170.56L81.1943 170.554L74.9434 164.243C73.683 162.971 73.6909 160.919 74.9375 159.674L74.9434 159.668L91.9385 142.509L92.9844 141.453L91.9385 140.398L84.3193 132.706C83.4011 131.779 83.1281 130.388 83.6279 129.16C84.1265 127.936 85.286 127.155 86.5557 127.155ZM159.314 74.4463C160.567 73.1818 162.574 73.19 163.8 74.4404L163.806 74.4463L170.057 80.7568C171.317 82.0293 171.309 84.081 170.062 85.3262L170.057 85.332L153.062 102.491L152.016 103.547L153.062 104.603L160.681 112.294C161.599 113.221 161.872 114.612 161.372 115.84C160.873 117.064 159.714 117.845 158.444 117.845H130.314C128.558 117.845 127.126 116.419 127.126 114.611V86.21C127.126 84.8874 127.908 83.708 129.092 83.2168C130.291 82.7192 131.654 82.9885 132.569 83.9131L140.188 91.6045L141.254 92.6807L142.319 91.6045L159.314 74.4463Z" stroke="#2C3E50" stroke-width="3"/>
</svg>
