<svg width="245" height="245" viewBox="0 0 245 245" fill="none" xmlns="http://www.w3.org/2000/svg">
<rect width="245" height="245" fill="#F1F1F1"/>
<path d="M103.75 140.125C109.335 140.125 114.137 143.477 116.232 148.297L116.755 149.5H166.25C168.602 149.5 170.5 151.398 170.5 153.75C170.5 156.102 168.602 158 166.25 158H116.755L116.232 159.203C114.137 164.023 109.335 167.375 103.75 167.375C98.165 167.375 93.3625 164.023 91.2676 159.203L90.7451 158H78.75C76.3975 158 74.5 156.102 74.5 153.75C74.5 151.398 76.3975 149.5 78.75 149.5H90.7451L91.2676 148.297C93.3625 143.477 98.165 140.125 103.75 140.125ZM141.25 108.875C146.835 108.875 151.637 112.227 153.732 117.047L154.255 118.25H166.25C168.602 118.25 170.5 120.148 170.5 122.5C170.5 124.852 168.602 126.75 166.25 126.75H154.255L153.732 127.953C151.637 132.773 146.835 136.125 141.25 136.125C135.665 136.125 130.863 132.773 128.768 127.953L128.245 126.75H78.75C76.3975 126.75 74.5 124.852 74.5 122.5C74.5 120.148 76.3975 118.25 78.75 118.25H128.245L128.768 117.047C130.863 112.227 135.665 108.875 141.25 108.875ZM110 77.625C115.585 77.625 120.387 80.9769 122.482 85.7969L123.005 87H166.25C168.602 87 170.5 88.8975 170.5 91.25C170.5 93.6025 168.602 95.5 166.25 95.5H123.005L122.482 96.7031C120.387 101.523 115.585 104.875 110 104.875C104.415 104.875 99.6125 101.523 97.5176 96.7031L96.9951 95.5H78.75C76.3975 95.5 74.5 93.6025 74.5 91.25C74.5 88.8975 76.3975 87 78.75 87H96.9951L97.5176 85.7969C99.6125 80.9769 104.415 77.625 110 77.625Z" stroke="#2C3E50" stroke-width="4"/>
</svg>
