<svg width="245" height="245" viewBox="0 0 245 245" fill="none" xmlns="http://www.w3.org/2000/svg">
<rect width="245" height="245" fill="#F1F1F1"/>
<path d="M140.482 75.5137C142.348 74.2356 145.1 74.1525 147.101 75.3428C148.882 76.403 149.384 78.0508 148.871 79.4316L148.755 79.7041L131.259 115.744L129.863 118.618H165.355C167.757 118.618 169.603 119.847 170.243 121.302C170.826 122.628 170.427 124.253 168.799 125.373L104.518 169.486C102.652 170.764 99.8997 170.848 97.8994 169.657C95.9992 168.526 95.5552 166.727 96.2451 165.296L96.2441 165.295L113.741 129.256L115.137 126.382H79.6445C77.2428 126.382 75.3969 125.153 74.7568 123.698C74.1735 122.372 74.5732 120.747 76.2012 119.627L140.482 75.5137Z" stroke="#2C3E50" stroke-width="4"/>
</svg>
