<svg width="245" height="245" viewBox="0 0 245 245" fill="none" xmlns="http://www.w3.org/2000/svg">
<rect width="245" height="245" rx="8" fill="#F1F1F1"/>
<path d="M122.5 148.214C136.702 148.214 148.214 136.702 148.214 122.5C148.214 108.298 136.702 96.7856 122.5 96.7856C108.298 96.7856 96.7858 108.298 96.7858 122.5C96.7858 136.702 108.298 148.214 122.5 148.214Z" stroke="#2C3E50" stroke-width="2" stroke-dasharray="3 3"/>
<path d="M122.5 165.357C146.169 165.357 165.357 146.169 165.357 122.5C165.357 98.8306 146.169 79.6428 122.5 79.6428C98.8306 79.6428 79.6428 98.8306 79.6428 122.5C79.6428 146.169 98.8306 165.357 122.5 165.357Z" stroke="#2C3E50" stroke-width="2"/>
<path d="M122.5 182.5C155.637 182.5 182.5 155.637 182.5 122.5C182.5 89.3629 155.637 62.5 122.5 62.5C89.3629 62.5 62.5 89.3629 62.5 122.5C62.5 155.637 89.3629 182.5 122.5 182.5Z" stroke="#2C3E50" stroke-width="2"/>
<path d="M122.5 127.643C125.34 127.643 127.643 125.34 127.643 122.5C127.643 119.66 125.34 117.357 122.5 117.357C119.66 117.357 117.357 119.66 117.357 122.5C117.357 125.34 119.66 127.643 122.5 127.643Z" fill="#2C3E50"/>
</svg>
