<svg width="245" height="245" viewBox="0 0 245 245" fill="none" xmlns="http://www.w3.org/2000/svg">
<g clip-path="url(#clip0_203_146)">
<rect width="245" height="245" rx="8" fill="#F1F1F1"/>
<path d="M185.5 87.5H59.5C55.634 87.5 52.5 90.634 52.5 94.5V150.5C52.5 154.366 55.634 157.5 59.5 157.5H185.5C189.366 157.5 192.5 154.366 192.5 150.5V94.5C192.5 90.634 189.366 87.5 185.5 87.5Z" stroke="#2C3E50" stroke-width="2"/>
<path d="M70 87.5V70" stroke="#2C3E50" stroke-width="2"/>
<path d="M87.4998 87.5V80.5" stroke="#2C3E50" stroke-width="2"/>
<path d="M105 87.5V70" stroke="#2C3E50" stroke-width="2"/>
<path d="M122.5 87.5V80.5" stroke="#2C3E50" stroke-width="2"/>
<path d="M140 87.5V70" stroke="#2C3E50" stroke-width="2"/>
<path d="M157.5 87.5V80.5" stroke="#2C3E50" stroke-width="2"/>
<path d="M175 87.5V70" stroke="#2C3E50" stroke-width="2"/>
<path d="M68.1052 39.1758C68.1052 38.4987 68.1742 37.9544 68.3123 37.543C68.4529 37.1289 68.6599 36.8099 68.9333 36.5859C69.2094 36.362 69.5557 36.25 69.9724 36.25C70.2797 36.25 70.5492 36.3125 70.781 36.4375C71.0128 36.5599 71.2042 36.7383 71.3552 36.9727C71.5063 37.2044 71.6248 37.4883 71.7107 37.8242C71.7966 38.1576 71.8396 38.6081 71.8396 39.1758C71.8396 39.8477 71.7706 40.3906 71.6326 40.8047C71.4945 41.2161 71.2875 41.5352 71.0115 41.7617C70.738 41.9857 70.3917 42.0977 69.9724 42.0977C69.4203 42.0977 68.9867 41.8997 68.6716 41.5039C68.294 41.0273 68.1052 40.2513 68.1052 39.1758ZM68.8279 39.1758C68.8279 40.1159 68.9373 40.7422 69.156 41.0547C69.3774 41.3646 69.6495 41.5195 69.9724 41.5195C70.2953 41.5195 70.5662 41.3633 70.7849 41.0508C71.0063 40.7383 71.1169 40.1133 71.1169 39.1758C71.1169 38.2331 71.0063 37.6068 70.7849 37.2969C70.5662 36.987 70.2927 36.832 69.9646 36.832C69.6417 36.832 69.3839 36.9688 69.1912 37.2422C68.949 37.5911 68.8279 38.2357 68.8279 39.1758Z" fill="#333333"/>
<path d="M105.754 42H105.051V37.5195C104.882 37.681 104.659 37.8424 104.383 38.0039C104.109 38.1654 103.863 38.2865 103.645 38.3672V37.6875C104.038 37.5026 104.382 37.2786 104.676 37.0156C104.97 36.7526 105.178 36.4974 105.301 36.25H105.754V42Z" fill="#333333"/>
<path d="M141.801 41.3242V42H138.016C138.01 41.8307 138.038 41.668 138.098 41.5117C138.194 41.2539 138.348 41 138.559 40.75C138.772 40.5 139.079 40.2109 139.48 39.8828C140.103 39.3724 140.523 38.9688 140.742 38.6719C140.961 38.3724 141.07 38.0898 141.07 37.8242C141.07 37.5456 140.97 37.3112 140.77 37.1211C140.572 36.9284 140.312 36.832 139.992 36.832C139.654 36.832 139.383 36.9336 139.18 37.1367C138.977 37.3398 138.874 37.6211 138.871 37.9805L138.148 37.9062C138.198 37.3672 138.384 36.957 138.707 36.6758C139.03 36.3919 139.464 36.25 140.008 36.25C140.557 36.25 140.992 36.4023 141.312 36.707C141.633 37.0117 141.793 37.3893 141.793 37.8398C141.793 38.069 141.746 38.2943 141.652 38.5156C141.559 38.737 141.402 38.9701 141.184 39.2148C140.967 39.4596 140.607 39.7956 140.102 40.2227C139.68 40.5768 139.409 40.8177 139.289 40.9453C139.169 41.0703 139.07 41.1966 138.992 41.3242H141.801Z" fill="#333333"/>
<path d="M173.109 40.4883L173.812 40.3945C173.893 40.793 174.03 41.0807 174.222 41.2578C174.418 41.4323 174.655 41.5195 174.933 41.5195C175.264 41.5195 175.543 41.4049 175.769 41.1758C175.998 40.9466 176.113 40.6628 176.113 40.3242C176.113 40.0013 176.008 39.7357 175.797 39.5273C175.586 39.3164 175.317 39.2109 174.992 39.2109C174.859 39.2109 174.694 39.237 174.496 39.2891L174.574 38.6719C174.621 38.6771 174.659 38.6797 174.687 38.6797C174.987 38.6797 175.256 38.6016 175.496 38.4453C175.735 38.2891 175.855 38.0482 175.855 37.7227C175.855 37.4648 175.768 37.2513 175.594 37.082C175.419 36.9128 175.194 36.8281 174.918 36.8281C174.644 36.8281 174.416 36.9141 174.234 37.0859C174.052 37.2578 173.935 37.5156 173.883 37.8594L173.179 37.7344C173.265 37.263 173.461 36.8984 173.765 36.6406C174.07 36.3802 174.449 36.25 174.902 36.25C175.215 36.25 175.502 36.3177 175.765 36.4531C176.028 36.5859 176.229 36.7682 176.367 37C176.508 37.2318 176.578 37.4779 176.578 37.7383C176.578 37.9857 176.511 38.2109 176.379 38.4141C176.246 38.6172 176.049 38.7786 175.789 38.8984C176.127 38.9766 176.39 39.1393 176.578 39.3867C176.765 39.6315 176.859 39.9388 176.859 40.3086C176.859 40.8086 176.677 41.2331 176.312 41.582C175.948 41.9284 175.487 42.1016 174.929 42.1016C174.427 42.1016 174.009 41.9518 173.676 41.6523C173.345 41.3529 173.156 40.9648 173.109 40.4883Z" fill="#333333"/>
</g>
<defs>
<clipPath id="clip0_203_146">
<rect width="245" height="245" rx="8" fill="white"/>
</clipPath>
</defs>
</svg>
