<svg width="245" height="245" viewBox="0 0 245 245" fill="none" xmlns="http://www.w3.org/2000/svg">
<rect width="245" height="245" rx="8" fill="#F1F1F1"/>
<path d="M79.6657 75.5791C77.3595 74.6416 74.7345 75.7479 73.8157 78.0541C71.3407 84.1479 69.9907 90.7854 69.9907 97.7416C69.9907 104.698 71.3407 111.335 73.8157 117.429C74.7532 119.735 77.3782 120.842 79.6845 119.904C81.9907 118.967 83.097 116.342 82.1595 114.035C80.1157 109.029 78.9907 103.517 78.9907 97.7416C78.9907 91.9666 80.1157 86.4541 82.1595 81.4291C83.097 79.1229 81.972 76.4979 79.6845 75.5604L79.6657 75.5791ZM165.316 75.5791C163.009 76.5166 161.903 79.1416 162.841 81.4479C164.884 86.4729 166.009 91.9854 166.009 97.7604C166.009 103.535 164.884 109.048 162.841 114.073C161.903 116.379 163.028 119.004 165.316 119.942C167.603 120.879 170.247 119.754 171.184 117.467C173.641 111.373 175.009 104.735 175.009 97.7791C175.009 90.8229 173.659 84.1854 171.184 78.0916C170.247 75.7854 167.622 74.6791 165.316 75.6166V75.5791ZM132.259 104.717C133.666 102.748 134.491 100.348 134.491 97.7416C134.491 91.1229 129.109 85.7416 122.491 85.7416C115.872 85.7416 110.491 91.1229 110.491 97.7416C110.491 100.348 111.316 102.748 112.722 104.717L87.0345 161.267C85.6657 164.285 86.997 167.848 90.0157 169.217C93.0345 170.585 96.597 169.254 97.9657 166.235L101.828 157.76H143.191L147.053 166.235C148.422 169.254 151.984 170.585 155.003 169.217C158.022 167.848 159.353 164.285 157.984 161.267L132.259 104.717ZM139.084 148.742H105.897L109.984 139.742H134.978L139.066 148.742H139.084ZM122.491 112.235L130.891 130.742H114.072L122.472 112.235H122.491ZM99.1095 87.5416C100.103 85.2729 99.072 82.6104 96.7845 81.6166C94.497 80.6229 91.8532 81.6541 90.8595 83.9416C89.022 88.1791 87.9907 92.8479 87.9907 97.7416C87.9907 102.635 89.022 107.304 90.8595 111.542C91.8532 113.81 94.5157 114.86 96.7845 113.867C99.0532 112.873 100.103 110.21 99.1095 107.942C97.7407 104.829 96.9907 101.379 96.9907 97.7416C96.9907 94.1041 97.7407 90.6541 99.1095 87.5416ZM154.122 83.9416C153.128 81.6729 150.466 80.6229 148.197 81.6166C145.928 82.6104 144.878 85.2729 145.872 87.5416C147.241 90.6541 147.991 94.1041 147.991 97.7416C147.991 101.379 147.241 104.829 145.872 107.942C144.878 110.21 145.909 112.873 148.197 113.867C150.484 114.86 153.128 113.829 154.122 111.542C155.959 107.304 156.991 102.635 156.991 97.7416C156.991 92.8479 155.959 88.1791 154.122 83.9416Z" stroke="#2C3E50" stroke-width="3"/>
</svg>
