<svg width="245" height="245" viewBox="0 0 245 245" fill="none" xmlns="http://www.w3.org/2000/svg">
<rect width="245" height="245" fill="#F3F3F3"/>
<path d="M172.562 81.7221C170.187 72.8263 161.042 67.5555 152.146 69.9305L148.937 70.7846C145.375 71.743 143.271 75.4096 144.229 78.9513L149.333 97.993L126.792 103.847L125.479 100.076C124.521 97.4096 122 95.618 119.167 95.618C116.333 95.618 113.812 97.4096 112.875 100.076L110.042 108.201L82.5 115.347V107.305C82.5 104.535 80.2708 102.305 77.5 102.305C74.7292 102.305 72.5 104.535 72.5 107.305V162.305H69.1667C65.4792 162.305 62.5 165.285 62.5 168.972C62.5 172.66 65.4792 175.639 69.1667 175.639H175.833C179.521 175.639 182.5 172.66 182.5 168.972C182.5 165.285 179.521 162.305 175.833 162.305H147.229L134.437 125.764L121.479 129.118L126.083 142.285H112.208L116.354 130.43L100.812 134.451L91.0833 162.264H82.4792V129.097L152.771 110.868L158.021 130.451C158.979 134.014 162.625 136.118 166.188 135.16L169.417 134.305C178.312 131.93 183.583 122.785 181.208 113.889L172.562 81.7221ZM105.229 162.285L108.729 152.285H129.604L133.104 162.285H105.229Z" stroke="#2C3E50" stroke-width="3"/>
</svg>
